<svg xmlns:dc="http://purl.org/dc/elements/1.1/" xmlns:cc="http://creativecommons.org/ns#" xmlns:rdf="http://www.w3.org/1999/02/22-rdf-syntax-ns#" xmlns:svg="http://www.w3.org/2000/svg" xmlns="http://www.w3.org/2000/svg" xmlns:sodipodi="http://sodipodi.sourceforge.net/DTD/sodipodi-0.dtd" xmlns:inkscape="http://www.inkscape.org/namespaces/inkscape" width="210mm" height="297mm" viewBox="0 0 744.09448819 1052.3622047" id="svg4638" version="1.1" inkscape:version="0.91 r13725" sodipodi:docname="Tropical island.svg">
  <defs id="defs4640">
    <inkscape:path-effect effect="powerstroke" id="path-effect4254" is_visible="true" offset_points="0,13.081008" sort_points="true" interpolator_type="Linear" interpolator_beta="0.2" start_linecap_type="zerowidth" linejoin_type="round" miter_limit="4" end_linecap_type="zerowidth" cusp_linecap_type="round"></inkscape:path-effect>
    <inkscape:path-effect cusp_linecap_type="round" end_linecap_type="zerowidth" miter_limit="4" linejoin_type="round" start_linecap_type="zerowidth" interpolator_beta="0.2" interpolator_type="Linear" sort_points="true" offset_points="0.0084571083,10.224756" is_visible="true" id="path-effect4289" effect="powerstroke"></inkscape:path-effect>
    <inkscape:path-effect cusp_linecap_type="round" end_linecap_type="zerowidth" miter_limit="4" linejoin_type="round" start_linecap_type="zerowidth" interpolator_beta="0.2" interpolator_type="Linear" sort_points="true" offset_points="0,13.081008" is_visible="true" id="path-effect4321" effect="powerstroke"></inkscape:path-effect>
  </defs>
  <sodipodi:namedview id="base" pagecolor="#ffffff" bordercolor="#666666" borderopacity="1.0" inkscape:pageopacity="0.0" inkscape:pageshadow="2" inkscape:zoom="0.35" inkscape:cx="350.45526" inkscape:cy="511.78799" inkscape:document-units="px" inkscape:current-layer="layer1" showgrid="false" inkscape:window-width="1366" inkscape:window-height="705" inkscape:window-x="-8" inkscape:window-y="-8" inkscape:window-maximized="1"></sodipodi:namedview>
  <metadata id="metadata4643">
    <rdf:rdf>
      <cc:work rdf:about="">
        <dc:format>image/svg+xml</dc:format>
        <dc:type rdf:resource="http://purl.org/dc/dcmitype/StillImage"></dc:type>
        <dc:title></dc:title>
      </cc:work>
    </rdf:rdf>
  </metadata>
  <g inkscape:label="1. réteg" inkscape:groupmode="layer" id="layer1">
    <g id="g6189" transform="translate(48.571429,14.285714)">
      <path sodipodi:nodetypes="sssss" inkscape:connector-curvature="0" id="path4261" d="m 556.09299,545.68513 c 0,138.18734 -115.53916,99.39861 -255.82971,99.39861 -140.29056,0 -252.207357,38.78873 -252.207357,-99.39861 0,-138.18733 113.727967,-250.21028 254.018527,-250.21028 140.29059,0 254.01854,112.02295 254.01854,250.21028 z" style="fill: rgb(85, 153, 255); fill-opacity: 1; stroke-linecap: round; stroke-linejoin: round; stroke-opacity: 1; opacity: 1;" data-index="0"></path>
      <path sodipodi:nodetypes="cccccsccccccccc" inkscape:connector-curvature="0" id="path4241" d="m 319.86289,624.82099 c -14.6187,0.0254 -25.93767,8.84861 -38.56372,14.06777 -18.44055,-17.49522 -47.73551,-27.84382 -78.90997,-27.87536 -23.56267,0.0308 -46.32133,5.96686 -64.11039,16.72169 -5.87076,-3.02632 -12.30107,-4.60759 -18.81838,-4.62761 -24.09289,3e-5 -43.623931,20.88501 -43.62361,46.64771 2.94e-4,25.76223 19.531155,46.64649 43.62361,46.64652 0.2266,-0.007 0.45315,-0.0158 0.67963,-0.0265 18.07012,19.4035 49.02767,31.11805 82.24914,31.12364 22.91441,-0.0223 45.09382,-5.63022 62.68622,-15.84982 15.4617,10.69507 36.20681,16.69229 57.81793,16.71462 30.85008,-0.0183 59.13589,-12.16531 73.42576,-31.53182 16.01078,14.08298 37.96985,22.02592 60.90102,22.02885 46.99268,1.2e-4 85.08789,-32.68036 85.088,-72.99388 2.09439,-61.57368 -72.73552,-39.91526 -222.44524,-41.04581 z" style="fill:#0044aa;fill-opacity:1;stroke:#aaccff;stroke-width:6.04113626;stroke-linecap:round;stroke-linejoin:round;stroke-miterlimit:4;stroke-dasharray:none;stroke-opacity:1" data-index="1"></path>
      <circle r="145.8503" cy="483.41592" cx="224.24786" id="path4334" style="fill:#ffffff;fill-opacity:1;stroke:none;stroke-linecap:round;stroke-linejoin:round;stroke-opacity:1"></circle>
      <circle style="fill:#ffdd55;fill-opacity:1;stroke:none;stroke-linecap:round;stroke-linejoin:round;stroke-opacity:1" id="circle4336" cx="223.81635" cy="484.71048" r="132.4735"></circle>
      <circle r="122.11726" cy="484.71048" cx="223.81635" id="circle4338" style="fill:#ffd42a;fill-opacity:1;stroke:none;stroke-linecap:round;stroke-linejoin:round;stroke-opacity:1"></circle>
      <circle style="fill:#ffcc00;fill-opacity:1;stroke:none;stroke-linecap:round;stroke-linejoin:round;stroke-opacity:1" id="circle4340" cx="224.24786" cy="485.14191" r="111.32953"></circle>
      <circle r="97.521217" cy="485.14191" cx="223.38484" id="circle4342" style="fill:#ffbb00;fill-opacity:1;stroke:none;stroke-linecap:round;stroke-linejoin:round;stroke-opacity:1"></circle>
      <path inkscape:connector-curvature="0" id="path4151" d="m 198.9248,556.68649 c -2.47584,-0.17066 -4.94309,-0.16544 -7.40038,0.0377 -1.22866,0.10156 -2.45413,0.25196 -3.67778,0.45543 -1.22366,0.20348 -2.44521,0.45953 -3.66363,0.77048 -1.21841,0.31096 -2.43417,0.67681 -3.6471,1.10087 -1.21293,0.42404 -2.42336,0.90618 -3.63058,1.44892 -1.76315,0.79269 -3.78314,1.84783 -6.00101,3.12676 -2.21789,1.27894 -4.63364,2.78221 -7.18565,4.47304 -2.55202,1.69084 -5.24012,3.56913 -8.00568,5.59749 -2.76559,2.02837 -5.60847,4.20622 -8.46705,6.49776 -2.85806,2.29115 -5.73103,4.69402 -8.55905,7.17149 -2.82802,2.47747 -5.61107,5.02959 -8.28886,7.61867 -2.67781,2.5891 -5.25018,5.21567 -7.65761,7.84168 -2.40744,2.62601 -4.64959,5.25226 -6.66649,7.8405 -2.01722,2.58866 -3.80646,5.13552 -5.30959,7.60571 -0.75157,1.23508 -1.43182,2.45077 -2.03299,3.64237 -0.60117,1.1916 -1.12365,2.35958 -1.55984,3.49843 -0.4365,1.13968 -0.78602,2.24841 -1.04186,3.32144 -0.25585,1.07305 -0.41746,2.11076 -0.48023,3.10907 -0.0628,0.99831 -0.0259,1.95641 0.11682,2.8719 0.14273,0.9155 0.39098,1.78773 0.75161,2.61232 0.3597,0.82248 0.83281,1.6024 1.42886,2.33504 0.59606,0.73265 1.31494,1.41849 2.16514,2.05068 0.85021,0.6322 1.83235,1.21098 2.95449,1.73211 1.12215,0.52113 2.3839,0.98458 3.79577,1.38404 1.41269,0.39968 2.97298,0.7344 4.68778,1.00056 1.71481,0.26616 3.58507,0.4636 5.61755,0.58641 2.03247,0.12276 4.22765,0.17199 6.59333,0.1416 2.36568,-0.0303 4.90189,-0.14043 7.61633,-0.33391 l 0.0236,0 280.0987,2.58518 c -0.13307,-0.51601 -0.32931,-1.03008 -0.58641,-1.54214 -0.25711,-0.51207 -0.57487,-1.02203 -0.95219,-1.53034 -0.75462,-1.01661 -1.74626,-2.0262 -2.95921,-3.02883 -1.28244,-1.06006 -2.80416,-2.10617 -4.54028,-3.13974 -1.73615,-1.03356 -3.68626,-2.05447 -5.82405,-3.06422 -2.13757,-1.00964 -4.45988,-2.00641 -6.93905,-2.99226 -2.47915,-0.98583 -5.11572,-1.96077 -7.88179,-2.92617 -5.53213,-1.93081 -11.5828,-3.82384 -17.93462,-5.69307 -6.34613,-1.86754 -12.99258,-3.71188 -19.71746,-5.54439 -6.72491,-1.8325 -13.52898,-3.65331 -20.18945,-5.47714 -6.66045,-1.82382 -13.17761,-3.64982 -19.33044,-5.49129 -6.15284,-1.84148 -11.94091,-3.69906 -17.14291,-5.58452 -2.51016,-0.9098 -5.02802,-1.94007 -7.55142,-3.06776 -2.52339,-1.12769 -5.05197,-2.3523 -7.58564,-3.65183 -5.06735,-2.59906 -10.15245,-5.49577 -15.24325,-8.50596 -5.09081,-3.01019 -10.18796,-6.13376 -15.27864,-9.18677 -5.09068,-3.05301 -10.17508,-6.03566 -15.24207,-8.76319 -2.53953,-1.367 -5.07505,-2.67033 -7.6057,-3.8878 -2.53066,-1.21746 -5.05634,-2.34913 -7.57619,-3.37218 -2.51987,-1.02306 -5.0337,-1.93709 -7.54081,-2.72087 -2.50712,-0.78379 -5.00707,-1.43775 -7.49951,-1.93741 -2.49244,-0.49967 -4.97764,-0.84524 -7.45348,-1.01591 z" style="fill: rgb(0, 17, 43); fill-opacity: 1; stroke-linecap: round; stroke-linejoin: round; stroke-opacity: 1; opacity: 1;" data-index="2"></path>
      <g transform="matrix(0.60411365,0,0,0.60411365,45.60282,111.75351)" id="g4632">
        <path style="fill:#00112b;fill-rule:evenodd;stroke:none;stroke-width:1.2293396px;stroke-linecap:round;stroke-linejoin:round;stroke-opacity:1" d="m 262.45145,462.66423 c 1.01389,-1.76845 5.71014,-2.30944 10.42674,-2.84366 -0.32095,-1.24126 -1.12594,-1.81344 -1.89577,-2.84365 3.06915,0.0681 8.24221,0.35762 19.27368,1.26384 0.97785,-1.26384 -2.10045,-2.52769 -3.15962,-3.79154 5.57023,1.92323 11.42726,3.17724 15.7981,7.89905 0.23243,-2.27928 -1.65978,-4.13364 -3.47558,-6.00328 12.30416,3.85399 23.11484,8.72984 27.48869,18.00983 0.58526,-2.15707 0.0251,-4.69595 -0.63193,-7.26712 2.37574,3.11057 4.44507,6.0373 4.73943,7.89905 0.10533,-1.06831 0.21065,-4.13015 0.31597,-6.31924 4.24014,8.14302 9.89923,16.02805 9.79481,24.96099 -12.17392,-9.09078 -21.26387,-8.14419 -31.12225,-12.48049 2.33911,-0.76646 4.4118,-1.00009 6.45321,-1.17118 0,0 -4.0707,-1.35203 -8.41092,-0.85184 -1.10712,-0.31346 -3.96506,-2.79148 -4.77016,-3.70896 1.2399,-0.82659 5.28712,-1.11693 8.1497,-0.74524 -3.03995,-0.66447 -3.94178,-1.29425 -8.95353,-0.38127 -4.05735,-0.33098 -9.63881,-1.53395 -14.11169,-4.35816 l 2.84366,-1.57981 -6.95117,0 c -5.09503,0 -5.94078,0.50519 -21.80137,-5.68732 z" id="path4138-0" inkscape:connector-curvature="0" sodipodi:nodetypes="ccccccccccccccccccccsc" data-index="3"></path>
        <path style="fill:none;fill-rule:evenodd;stroke:#ffffff;stroke-width:0.31600869px;stroke-linecap:round;stroke-linejoin:round;stroke-opacity:1" d="m 263.10975,462.67373 c 35.8845,-4.14108 61.76194,4.67384 77.55724,30.02244" id="path4142" inkscape:connector-curvature="0" sodipodi:nodetypes="cc" data-index="4"></path>
        <path style="fill:#00112b;fill-rule:evenodd;stroke:none;stroke-width:1.29649258px;stroke-linecap:round;stroke-linejoin:round;stroke-opacity:1" d="m 341.58384,499.34215 c -9.83153,-3.84628 -20.01033,-5.21641 -30.81566,-2.11919 1.25762,0.86934 3.5537,0.92671 3.21177,3.04672 -3.21404,-1.91794 -4.78335,-1.73238 -6.67373,-1.95745 -5.76163,1.19562 -10.75961,4.85072 -15.7371,8.57178 2.45657,0.45111 5.22248,-0.0338 7.04724,2.32905 -3.98631,-0.68961 -7.6205,0.18636 -11.21067,1.25812 -4.27994,2.8535 -7.52612,6.90682 -10.62655,11.12932 2.40782,-0.53233 4.81381,-1.77975 7.22636,-0.46556 -11.61315,5.93752 -12.90526,15.67191 -16.10562,24.70431 8.10703,-6.81394 17.87985,-10.95229 27.19319,-15.82865 2.34354,-4.87781 5.20946,-9.45888 8.94388,-13.54661 -1.13019,3.02953 -2.22773,6.06149 -0.83312,9.27873 5.89656,-2.81033 11.40274,-6.61082 16.39968,-11.70292 -1.88238,-3.47593 -1.19463,-6.10245 -0.13379,-8.60566 0.21571,2.35359 -0.077,4.89599 1.91689,6.5893 5.36508,-5.24714 11.65978,-9.80077 20.19723,-12.68129 z" id="path4148" inkscape:connector-curvature="0" sodipodi:nodetypes="ccccccccccccccccc" data-index="5"></path>
        <path style="fill:none;fill-rule:evenodd;stroke:#ffffff;stroke-width:0.32828793px;stroke-linecap:round;stroke-linejoin:round;stroke-opacity:1" d="m 340.31378,499.28198 c -38.86918,-0.70437 -51.31873,25.95473 -71.64411,45.43699" id="path4150" inkscape:connector-curvature="0" sodipodi:nodetypes="cc" data-index="6"></path>
        <path style="fill:#00112b;fill-rule:evenodd;stroke:none;stroke-width:1.12769043px;stroke-linecap:round;stroke-linejoin:round;stroke-opacity:1" d="m 345.76009,493.06981 c -1.84161,-8.37887 -2.86997,-17.37358 3.19433,-27.03963 -0.22053,0.35377 1.45313,4.58056 1.50929,3.33165 0.30062,-6.68489 19.84664,-18.75671 22.55089,-19.32779 -0.45175,0.17514 -4.68001,8.87357 -3.70858,7.59281 5.34304,-7.04439 23.25887,-10.4658 23.50677,-9.76649 -1.30258,1.43468 -3.5313,2.70378 -2.95952,4.47359 12.9549,-3.68861 19.21545,4.26784 27.10829,9.38485 -9.03521,-1.55434 -17.38121,-1.2341 -24.14401,3.3923 -1.17476,-2.00507 -3.41946,-1.77684 -5.27935,-2.3518 0.53238,1.05905 0.51202,2.06612 2.65364,3.27654 -9.42453,3.66135 -19.68332,3.72679 -29.54874,5.48774 1.31873,0.32522 2.59477,0.66034 5.20828,0.68518 -9.28806,5.14274 -16.80591,11.52277 -20.09129,20.86105 z" id="path4152" inkscape:connector-curvature="0" sodipodi:nodetypes="ccscsccccccccc" data-index="7"></path>
        <path style="fill:none;fill-rule:evenodd;stroke:#ffffff;stroke-width:0.29031596px;stroke-linecap:round;stroke-linejoin:round;stroke-opacity:1" d="m 345.83625,492.30179 c 6.74435,-37.08127 45.53842,-41.20239 70.08055,-31.02856" id="path4154" inkscape:connector-curvature="0" sodipodi:nodetypes="cc" data-index="8"></path>
        <path style="fill:#00112b;fill-rule:evenodd;stroke:none;stroke-width:1.10958767px;stroke-linecap:round;stroke-linejoin:round;stroke-opacity:1" d="m 347.19174,496.69267 c 5.87889,-8.33866 11.99254,-16.59908 32.36833,-20.10544 -2.01956,1.37839 -3.71233,2.75678 -3.84997,4.13516 2.39093,-1.50657 4.71629,-3.07872 7.84255,-3.84998 7.31971,-0.95061 12.92832,0.19012 16.82583,3.4222 -2.35644,0.94915 -5.39899,1.62384 -5.98886,3.27962 4.58415,-1.47894 8.42042,-1.0882 12.2629,-0.71296 4.28953,1.73507 8.11504,4.3982 11.26475,8.41291 -2.53172,0.11568 -3.34261,0.66156 -4.42034,1.14074 1.43919,0.54485 3.67871,-0.22263 5.56108,1.28333 6.70706,5.25909 6.69643,9.90747 9.69624,14.82954 -5.75178,-0.75918 -10.74134,-3.23339 -14.97214,-7.41477 -0.26282,1.30569 -0.34992,2.7871 0.14259,4.84812 0.31625,-0.94875 -5.84022,-1.5598 -6.55922,-1.99628 -1.46095,-0.8869 -2.7377,-6.34094 -2.70925,-5.98886 -0.30629,1.73221 -0.83588,3.68772 -0.42777,4.70553 -6.04036,-4.05798 -11.39029,-5.00902 -16.68324,-5.70367 -1.48177,-3.22377 -4.95246,-4.45861 -7.84255,-6.27404 0.90663,1.47344 0.92334,2.94689 3.56479,4.42034 -5.94572,2.59301 -10.69929,-1.96683 -15.97028,-3.4222 -0.39522,0.8193 -0.82957,1.606 0.99814,4.27775 -5.08252,2.515 -13.98888,0.56885 -21.10358,0.71296 z" id="path4219" inkscape:connector-curvature="0" sodipodi:nodetypes="cccccccccccccscccccccc" data-index="9"></path>
        <path style="fill:none;fill-rule:evenodd;stroke:#ffffff;stroke-width:0.28639716px;stroke-linecap:round;stroke-linejoin:round;stroke-opacity:1" d="m 348.01274,496.13958 c 16.6142,-13.89135 50.30501,-16.53061 80.04582,11.96907" id="path4221" inkscape:connector-curvature="0" sodipodi:nodetypes="cc" data-index="10"></path>
        <path style="fill:#00112b;fill-rule:evenodd;stroke:none;stroke-width:1px;stroke-linecap:butt;stroke-linejoin:miter;stroke-opacity:1" d="m 271.62803,758.93686 c -0.008,-4.92618 0.15591,-11.7385 0.59506,-20.41042 0.43519,-8.59386 1.13373,-18.83944 2.16529,-30.14596 2.06399,-22.62246 5.48022,-49.68151 10.86698,-77.00008 5.38209,-27.29491 12.72103,-54.78316 22.63003,-78.23303 9.8759,-23.3715 22.40987,-43.01102 38.49895,-54.49891 -17.48821,9.79422 -32.18903,28.46859 -44.40917,51.69758 -12.18617,23.16441 -21.80593,50.64222 -29.4447,78.00286 -7.64164,27.37091 -13.29822,54.61289 -17.59527,77.44406 -2.14496,11.39666 -3.94187,21.64602 -5.46767,30.20691 -1.51739,8.51372 -2.79288,15.50636 -3.8426,20.05777 z" id="path4252" inkscape:path-effect="#path-effect4254" inkscape:original-d="m 258.62648,757.49725 c 4.18784,-37.82162 20.60336,-216.24902 87.75786,-258.84879" inkscape:connector-curvature="0" sodipodi:nodetypes="cc" data-index="11"></path>
        <path sodipodi:nodetypes="cccccccccccccscccccccc" inkscape:connector-curvature="0" id="path4258" d="m 345.43867,503.6642 c 10.04679,-2.55533 20.22315,-4.89518 38.27134,5.85569 -2.46974,-0.26966 -4.68715,-0.32346 -5.70385,0.64988 2.84114,0.41597 5.67496,0.738 8.59817,2.2074 6.27946,4.10067 9.85644,8.68591 10.73095,13.75571 -2.44632,-0.82358 -5.24112,-2.31224 -6.7902,-1.42342 4.51627,1.88592 7.22019,4.72146 9.93915,7.54913 2.16596,4.17289 3.36067,8.75584 3.14086,13.93599 -2.03116,-1.58288 -3.0178,-1.69699 -4.16642,-2.03886 0.75134,1.37127 2.98739,2.25789 3.4461,4.66394 1.70495,8.49057 -1.37351,12.07259 -2.30835,17.85431 -3.93955,-4.38521 -6.1578,-9.59114 -6.66263,-15.61404 -1.06533,0.83454 -2.11105,1.92081 -3.09207,3.83744 0.87082,-0.52365 -3.47902,-5.06178 -3.74587,-5.87369 -0.54221,-1.64973 2.07438,-6.70411 1.8638,-6.41347 -1.3806,1.13514 -3.08111,2.2952 -3.43827,3.35061 -1.98351,-7.12282 -5.48606,-11.39073 -9.11396,-15.42306 0.98522,-3.46779 -0.87892,-6.7136 -1.91128,-10.0242 -0.27319,1.73648 -1.2335,2.88518 -0.16723,5.76751 -6.30339,-1.92506 -6.96189,-8.58546 -10.07038,-13.19063 -0.8463,0.37154 -1.70127,0.69207 -2.05477,3.96215 -5.58539,-1.41515 -11.1766,-8.80042 -16.76509,-13.38839 z" style="fill:#00112b;fill-rule:evenodd;stroke:none;stroke-width:1.12742102px;stroke-linecap:round;stroke-linejoin:round;stroke-opacity:1" data-index="12"></path>
        <path sodipodi:nodetypes="cc" inkscape:connector-curvature="0" id="path4260" d="m 346.41685,503.93676 c 22.00311,0.24805 49.9324,20.23919 54.07147,61.88765" style="fill:none;fill-rule:evenodd;stroke:#ffffff;stroke-width:0.29100013px;stroke-linecap:round;stroke-linejoin:round;stroke-opacity:1" data-index="13"></path>
        <path sodipodi:nodetypes="cc" inkscape:connector-curvature="0" inkscape:original-d="M 218.93352,753.07107 C 209.89488,718.56908 269.81711,591.04286 189.25461,544.01691" inkscape:path-effect="#path-effect4289" id="path4287" d="m 218.93352,753.07107 c 3.21968,-1.1552 6.48374,-2.17686 9.774,-3.07981 -1.03849,-2.62916 -1.52582,-7.27219 -1.33711,-13.7493 0.18499,-6.34968 0.98249,-13.91834 2.05858,-22.43735 2.21573,-17.54111 5.5565,-38.66202 6.62182,-60.10269 1.06803,-21.49542 -0.14083,-43.40679 -6.97766,-62.78805 -6.86024,-19.44762 -19.21533,-35.86689 -39.81854,-46.89696 19.6887,12.48676 30.03296,29.63529 34.88862,48.40695 4.87041,18.82869 4.34736,39.78349 1.63699,60.35517 -2.72109,20.65308 -7.61898,40.77953 -11.58497,58.34405 -1.89801,8.40589 -3.6183,16.38564 -4.70105,23.45318 -1.05088,6.85957 -1.66804,13.80701 -0.76398,19.78418 3.42397,-0.29318 6.83043,-0.71752 10.2033,-1.28937 z" style="fill:#00112b;fill-rule:evenodd;stroke:none;stroke-width:1px;stroke-linecap:butt;stroke-linejoin:miter;stroke-opacity:1" data-index="14"></path>
        <path style="fill:#00112b;fill-rule:evenodd;stroke:none;stroke-width:1.12742102px;stroke-linecap:round;stroke-linejoin:round;stroke-opacity:1" d="m 187.87415,550.1392 c -10.04678,-2.55533 -20.22314,-4.89519 -38.27134,5.85568 2.46974,-0.26965 4.68715,-0.32346 5.70385,0.64988 -2.84114,0.41597 -5.67496,0.738 -8.59817,2.2074 -6.27946,4.10068 -9.85644,8.68591 -10.73095,13.75571 2.44632,-0.82358 5.24113,-2.31224 6.7902,-1.42342 -4.51627,1.88593 -7.22019,4.72147 -9.93915,7.54913 -2.16596,4.17289 -3.36066,8.75584 -3.14086,13.93599 2.03116,-1.58288 3.0178,-1.69698 4.16642,-2.03886 -0.75134,1.37128 -2.98739,2.25789 -3.4461,4.66394 -1.70494,8.49057 1.37351,12.0726 2.30836,17.85431 3.93954,-4.3852 6.15779,-9.59114 6.66262,-15.61404 1.06533,0.83454 2.11105,1.92081 3.09208,3.83744 -0.87083,-0.52365 3.47902,-5.06178 3.74586,-5.87369 0.54221,-1.64973 -2.07437,-6.7041 -1.8638,-6.41347 1.38061,1.13514 3.08112,2.2952 3.43828,3.35061 1.9835,-7.12282 5.48605,-11.39073 9.11395,-15.42306 -0.98521,-3.46779 0.87892,-6.71359 1.91128,-10.0242 0.2732,1.73648 1.2335,2.88518 0.16723,5.76751 6.3034,-1.92505 6.96189,-8.58546 10.07038,-13.19063 0.8463,0.37154 1.70127,0.69207 2.05477,3.96215 5.58539,-1.41515 11.17661,-8.80041 16.76509,-13.38838 z" id="path4291" inkscape:connector-curvature="0" sodipodi:nodetypes="cccccccccccccscccccccc" data-index="15"></path>
        <path style="fill:none;fill-rule:evenodd;stroke:#ffffff;stroke-width:0.29100013px;stroke-linecap:round;stroke-linejoin:round;stroke-opacity:1" d="m 186.89597,550.41175 c -22.0031,0.24805 -49.9324,20.23919 -54.07147,61.88765" id="path4293" inkscape:connector-curvature="0" sodipodi:nodetypes="cc" data-index="16"></path>
        <path sodipodi:nodetypes="ccccccccccccccccc" inkscape:connector-curvature="0" id="path4299" d="m 187.9732,541.56785 c -6.60636,-8.23461 -14.74792,-14.49562 -25.6592,-17.19597 0.657,1.38048 2.61897,2.5746 1.26591,4.2421 -1.83046,-3.26465 -3.28345,-3.88594 -4.81013,-5.02323 -5.59091,-1.83511 -11.7456,-1.15738 -17.9154,-0.41225 1.90486,1.61546 4.54442,2.57363 4.94873,5.53154 -3.1122,-2.58465 -6.69942,-3.63654 -10.34606,-4.49675 -5.13268,0.34066 -9.96714,2.23674 -14.75955,4.35212 2.35276,0.73858 5.06034,0.8563 6.49688,3.19806 -13.02724,-0.64059 -18.99912,7.15458 -26.27547,13.39007 10.42445,-1.86669 20.95951,-0.58356 31.46406,-0.16925 4.46285,-3.06074 9.23068,-5.60387 14.50557,-7.28644 -2.48976,2.06314 -4.95241,4.14465 -5.34686,7.6289 6.51267,0.5025 13.1804,-0.048 20.05041,-1.97204 0.10051,-3.95162 2.00583,-5.88588 4.17313,-7.5273 -0.98604,2.14795 -2.50696,4.20617 -1.62232,6.66794 7.26643,-1.87497 14.99314,-2.68538 23.8303,-0.9275 z" style="fill:#00112b;fill-rule:evenodd;stroke:none;stroke-width:1.29649258px;stroke-linecap:round;stroke-linejoin:round;stroke-opacity:1" data-index="17"></path>
        <path sodipodi:nodetypes="cc" inkscape:connector-curvature="0" id="path4301" d="m 186.90212,540.88268 c -33.34629,-19.98334 -57.42645,-3.07638 -84.75749,3.68331" style="fill:none;fill-rule:evenodd;stroke:#ffffff;stroke-width:0.32828793px;stroke-linecap:round;stroke-linejoin:round;stroke-opacity:1" data-index="18"></path>
        <path sodipodi:nodetypes="cccccccccccccscccccccc" inkscape:connector-curvature="0" id="path4309" d="m 193.80287,542.99445 c 7.06968,-7.58203 14.36487,-15.05286 35.36027,-15.76817 -2.22336,1.10859 -4.11775,2.26233 -4.4467,3.63085 2.6149,-1.18634 5.17285,-2.44774 8.42639,-2.79231 7.49962,0.0541 12.98791,1.97707 16.46488,5.76894 -2.50318,0.62997 -5.65912,0.88891 -6.48161,2.4742 4.81886,-0.85558 8.62664,0.0676 12.4428,0.97608 4.07837,2.33907 7.56145,5.54827 10.17755,10.02469 -2.56451,-0.23324 -3.45618,0.20427 -4.60726,0.53776 1.3735,0.74726 3.73389,0.28401 5.42075,2.05996 6.02521,6.2204 5.37247,10.89819 7.71235,16.26728 -5.68512,-1.55867 -10.36606,-4.73847 -14.04742,-9.53199 -0.44491,1.27806 -0.73721,2.75727 -0.52609,4.90001 0.44939,-0.91137 -5.66356,-2.37682 -6.32705,-2.91551 -1.34814,-1.09458 -1.88006,-6.76118 -1.90004,-6.40283 -0.54758,1.7014 -1.35079,3.59675 -1.08055,4.67768 -5.51998,-4.91922 -10.77407,-6.61552 -16.00622,-8.04586 -1.04634,-3.44984 -4.36952,-5.17225 -7.02805,-7.39893 0.70914,1.60846 0.52244,3.094 2.97792,4.94207 -6.34335,1.789 -10.49868,-3.45769 -15.60365,-5.65077 -0.51101,0.77015 -1.0569,1.50208 0.41392,4.44403 -5.46364,1.82968 -14.16034,-1.35956 -21.34219,-2.19718 z" style="fill:#00112b;fill-rule:evenodd;stroke:none;stroke-width:1.12742102px;stroke-linecap:round;stroke-linejoin:round;stroke-opacity:1" data-index="19"></path>
        <path sodipodi:nodetypes="cc" inkscape:connector-curvature="0" id="path4311" d="m 194.77309,542.6948 c 18.64323,-11.68881 52.94703,-9.97405 78.9489,22.82273" style="fill:none;fill-rule:evenodd;stroke:#ffffff;stroke-width:0.29100013px;stroke-linecap:round;stroke-linejoin:round;stroke-opacity:1" data-index="20"></path>
        <path style="fill:#00112b;fill-rule:evenodd;stroke:none;stroke-width:1.29649258px;stroke-linecap:round;stroke-linejoin:round;stroke-opacity:1" d="m 189.08485,535.83777 c 1.10469,-10.49916 4.56796,-20.16824 12.28644,-28.3397 0.19378,1.51651 -0.81095,3.58188 1.2289,4.25297 -0.22546,-3.736 0.66086,-5.04429 1.33015,-6.82649 3.71081,-4.56681 9.25462,-7.32465 14.84759,-10.03397 -0.72887,2.38893 -2.43117,4.62221 -1.17188,7.32903 1.22042,-3.85704 3.66923,-6.68158 6.27167,-9.37699 4.50182,-2.48876 9.59383,-3.50785 14.76906,-4.31973 -1.57979,1.89347 -3.79376,3.45654 -3.73595,6.2032 10.61218,-7.58293 19.85074,-4.2547 29.34327,-2.94384 -9.77844,4.06642 -17.94676,10.84229 -26.55921,16.87081 -5.40916,-0.16156 -10.79499,0.27719 -16.14204,1.71404 3.20996,0.38926 6.40707,0.80864 8.62288,3.52631 -5.20678,3.94422 -11.11336,7.08652 -17.93281,9.18274 -2.22126,-3.26977 -4.86991,-3.86665 -7.5806,-4.07551 1.9909,1.27369 4.38322,2.18269 4.97018,4.73188 -7.12638,2.35186 -14.06432,5.84811 -20.54765,12.10525 z" id="path4315" inkscape:connector-curvature="0" sodipodi:nodetypes="ccccccccccccccccc" data-index="21"></path>
        <path style="fill:none;fill-rule:evenodd;stroke:#ffffff;stroke-width:0.32828793px;stroke-linecap:round;stroke-linejoin:round;stroke-opacity:1" d="m 189.61536,534.68226 c 17.24568,-34.84101 46.6439,-33.63938 73.28996,-42.73149" id="path4317" inkscape:connector-curvature="0" sodipodi:nodetypes="cc" data-index="22"></path>
        <path sodipodi:nodetypes="cc" inkscape:connector-curvature="0" inkscape:original-d="M 305.10148,760.81689 C 321.46134,731.84765 292.50841,625.34584 357.44981,621.47524" inkscape:path-effect="#path-effect4321" id="path4319" d="m 316.49169,767.24931 c 2.70203,-5.84653 3.72872,-12.54464 4.1895,-18.78238 0.47552,-6.43747 0.40557,-13.4955 0.17103,-20.68204 -0.48065,-14.72749 -1.62388,-30.15156 -1.28356,-45.43119 0.33468,-15.0264 2.1239,-29.0776 7.39982,-39.84884 2.63474,-5.37902 6.2081,-10.08932 11.11049,-13.72559 4.92735,-3.65479 11.26579,-6.27361 19.37084,-7.30403 -8.1346,-0.0601 -15.08871,1.49066 -21.07639,4.51683 -6.01332,3.03914 -10.95032,7.51649 -14.99424,13.11605 -8.06742,11.17085 -12.24695,26.32319 -14.8327,42.00633 -2.55824,15.5163 -3.64129,32.26036 -5.29802,45.83599 -0.84172,6.89724 -1.82872,13.01274 -3.16109,17.92456 -1.36008,5.01398 -2.96901,8.24631 -4.3761,9.50947 z" style="fill:#00112b;fill-rule:evenodd;stroke:none;stroke-width:1px;stroke-linecap:butt;stroke-linejoin:miter;stroke-opacity:1" data-index="23"></path>
        <path sodipodi:nodetypes="ccscsccccccccc" inkscape:connector-curvature="0" id="path4323" d="m 359.11457,619.93513 c 7.51705,-4.13411 15.85465,-7.6621 26.84033,-4.57617 -0.40166,-0.11158 -3.9833,2.6882 -2.76941,2.38918 6.49742,-1.60051 23.60024,13.73798 24.91216,16.17066 -0.29566,-0.38385 -9.83435,-1.98197 -8.3313,-1.41202 8.26706,3.13484 16.61135,19.35384 16.01058,19.78923 -1.74427,-0.84411 -3.5914,-2.62342 -5.12753,-1.57485 7.19883,11.38472 1.33559,19.63833 -1.34269,28.6554 -1.06199,-9.10622 -3.72743,-17.02163 -10.0762,-22.2016 1.59143,-1.69344 0.73823,-3.78218 0.76423,-5.72875 -0.86546,0.80994 -1.83725,1.07496 -2.3932,3.47133 -6.17516,-8.00593 -9.13665,-17.82817 -13.61341,-26.794 0.0607,1.35689 0.0997,2.67562 0.81439,5.18964 -7.55762,-7.45643 -15.8019,-12.86518 -25.68795,-13.37805 z" style="fill:#00112b;fill-rule:evenodd;stroke:none;stroke-width:1.12769043px;stroke-linecap:round;stroke-linejoin:round;stroke-opacity:1" data-index="24"></path>
        <path sodipodi:nodetypes="cc" inkscape:connector-curvature="0" id="path4325" d="m 359.87281,619.79117 c 37.47588,-4.00817 52.39072,32.04055 49.5661,58.4573" style="fill:none;fill-rule:evenodd;stroke:#ffffff;stroke-width:0.29031596px;stroke-linecap:round;stroke-linejoin:round;stroke-opacity:1" data-index="25"></path>
        <path style="fill:#00112b;fill-rule:evenodd;stroke:none;stroke-width:1.12769043px;stroke-linecap:round;stroke-linejoin:round;stroke-opacity:1" d="m 354.89737,625.47672 c 8.26976,2.28213 16.70456,5.57095 22.42261,15.44577 -0.20994,-0.36015 -4.72925,-0.85284 -3.65094,-0.22024 5.77173,3.38604 7.32482,26.30685 6.56767,28.96501 0.056,-0.48128 -5.6633,-8.28069 -4.98403,-6.82377 3.73613,8.0133 -1.60023,25.45481 -2.33439,25.34764 -0.66085,-1.82162 -0.74296,-4.38503 -2.57505,-4.70541 -2.78453,13.17883 -12.74324,15.00192 -20.95266,19.5939 5.59184,-7.26515 9.20411,-14.79574 8.26911,-22.93606 2.32158,-0.10307 3.16745,-2.19479 4.54404,-3.5713 -1.1851,-0.0235 -2.06623,-0.51153 -4.13632,0.81753 1.16084,-10.04389 5.89125,-19.14719 8.93858,-28.69399 -0.90314,1.01448 -1.79512,1.98657 -3.03694,4.28634 -0.21298,-10.61464 -2.34646,-20.24122 -9.07168,-27.50542 z" id="path4333" inkscape:connector-curvature="0" sodipodi:nodetypes="ccscsccccccccc" data-index="26"></path>
        <path style="fill:none;fill-rule:evenodd;stroke:#ffffff;stroke-width:0.29031596px;stroke-linecap:round;stroke-linejoin:round;stroke-opacity:1" d="m 355.54105,625.90255 c 29.64635,23.27231 15.18391,59.5049 -5.26877,76.46107" id="path4335" inkscape:connector-curvature="0" sodipodi:nodetypes="cc" data-index="27"></path>
        <path sodipodi:nodetypes="ccccccccccccccccccccsc" inkscape:connector-curvature="0" id="path4337" d="m 295.64787,596.64966 c 0.75722,-1.32074 4.26455,-1.72477 7.78708,-2.12375 -0.2397,-0.92702 -0.8409,-1.35434 -1.41583,-2.12374 2.29215,0.0508 6.15558,0.26709 14.39429,0.94388 0.73029,-0.94388 -1.5687,-1.88777 -2.35972,-2.83166 4.16005,1.43634 8.5343,2.37288 11.7986,5.8993 0.17359,-1.70225 -1.23958,-3.08715 -2.59569,-4.48347 9.1892,2.8783 17.26301,6.51977 20.52956,13.45041 0.4371,-1.61098 0.0187,-3.50712 -0.47194,-5.42736 1.77429,2.32309 3.31974,4.50888 3.53958,5.8993 0.0787,-0.79785 0.15732,-3.08454 0.23597,-4.71944 3.1667,6.08151 7.39311,11.97034 7.31513,18.64179 -9.09193,-6.78933 -15.88064,-6.08238 -23.24324,-9.32089 1.74693,-0.57242 3.29489,-0.74691 4.8195,-0.87468 0,0 -3.04015,-1.00975 -6.28159,-0.63619 -0.82684,-0.2341 -2.96125,-2.08477 -3.56253,-2.76998 0.926,-0.61733 3.94861,-0.83417 6.0865,-0.55658 -2.27035,-0.49625 -2.94387,-0.96659 -6.68683,-0.28475 -3.03018,-0.24718 -7.19862,-1.14561 -10.53913,-3.25483 l 2.12375,-1.17986 -5.19139,0 c -3.80516,0 -4.43679,0.37729 -16.28207,-4.2475 z" style="fill:#00112b;fill-rule:evenodd;stroke:none;stroke-width:1.2293396px;stroke-linecap:round;stroke-linejoin:round;stroke-opacity:1" data-index="28"></path>
        <path sodipodi:nodetypes="cc" inkscape:connector-curvature="0" id="path4339" d="m 296.13952,596.65676 c 26.79986,-3.09271 46.12609,3.49059 57.92259,22.42186" style="fill:none;fill-rule:evenodd;stroke:#ffffff;stroke-width:0.23600692px;stroke-linecap:round;stroke-linejoin:round;stroke-opacity:1" data-index="29"></path>
        <path style="fill:#00112b;fill-rule:evenodd;stroke:none;stroke-width:1.2293396px;stroke-linecap:round;stroke-linejoin:round;stroke-opacity:1" d="m 318.1736,552.26823 c 1.69311,-0.78487 5.48805,1.29548 9.29461,3.39166 0.4169,-1.09719 0.11817,-1.95056 0.088,-3.12755 2.25705,1.6746 5.96883,4.62773 13.73139,11.14099 1.39922,-0.42694 -0.23205,-2.99977 -0.35475,-4.50439 3.14422,4.38384 6.85679,8.41941 7.62432,14.25962 1.37951,-1.57997 0.94682,-3.96649 0.5793,-6.32401 7.15391,9.38895 12.65138,18.75124 11.00966,27.99862 1.57847,-1.30198 2.50314,-3.49523 3.37253,-5.76383 0.12935,3.58089 0.12703,6.86233 -0.63799,8.40904 0.64388,-0.74245 2.34243,-2.97434 3.57925,-4.55416 -1.1401,8.32717 -1.08357,17.21228 -5.88754,23.83115 -4.28609,-13.23264 -11.57829,-17.33444 -16.64971,-25.7898 2.15312,0.66486 3.8253,1.58686 5.44103,2.53904 0,0 -2.32607,-3.16375 -5.83343,-5.08624 -0.66133,-0.81991 -1.4856,-4.18331 -1.60173,-5.29473 1.36368,0.0384 4.54111,1.96264 6.4832,3.75479 -1.91972,-2.10473 -2.26033,-3.05236 -6.48779,-5.02171 -2.85628,-2.39382 -6.38994,-6.24547 -8.23764,-10.72191 l 2.96039,0.32411 -5.19346,-3.67751 c -3.80667,-2.69552 -4.70583,-2.76552 -13.27968,-15.78318 z" id="path4347" inkscape:connector-curvature="0" sodipodi:nodetypes="ccccccccccccccccccccsc" data-index="30"></path>
        <path style="fill:none;fill-rule:evenodd;stroke:#ffffff;stroke-width:0.28929943px;stroke-linecap:round;stroke-linejoin:round;stroke-opacity:1" d="m 318.66042,552.6236 c 29.00137,15.89071 43.67177,36.16707 42.06232,63.46236" id="path4349" inkscape:connector-curvature="0" sodipodi:nodetypes="cc" data-index="31"></path>
      </g>
      <path inkscape:connector-curvature="0" id="path4314" d="m 353.87541,579.44493 a 4.9198647,4.9198647 0 0 0 -4.20992,2.38696 4.9198647,4.9198647 0 0 0 -3.16923,-1.15632 4.9198647,4.9198647 0 0 0 -4.92022,4.91904 4.9198647,4.9198647 0 0 0 0.17344,1.29201 4.9198647,4.9198647 0 0 0 -4.17098,4.85768 4.9198647,4.9198647 0 0 0 4.92022,4.92022 4.9198647,4.9198647 0 0 0 1.4501,-0.22417 4.9198647,4.9198647 0 0 0 -0.22064,1.45364 4.9198647,4.9198647 0 0 0 4.92022,4.92023 4.9198647,4.9198647 0 0 0 3.72379,-1.70734 4.9198647,4.9198647 0 0 0 3.96333,2.01529 4.9198647,4.9198647 0 0 0 3.16215,-1.15749 4.9198647,4.9198647 0 0 0 4.52496,3.0017 4.9198647,4.9198647 0 0 0 4.91314,-4.77628 4.9198647,4.9198647 0 0 0 1.23654,0.164 4.9198647,4.9198647 0 0 0 4.92022,-4.91903 4.9198647,4.9198647 0 0 0 -0.006,-0.1593 4.9198647,4.9198647 0 0 0 3.69548,-4.76092 4.9198647,4.9198647 0 0 0 -4.91904,-4.92024 4.9198647,4.9198647 0 0 0 -1.22476,0.1593 4.9198647,4.9198647 0 0 0 -4.61816,-3.23414 4.9198647,4.9198647 0 0 0 -2.59462,0.74335 4.9198647,4.9198647 0 0 0 -4.47776,-2.89551 4.9198647,4.9198647 0 0 0 -3.1008,1.10322 4.9198647,4.9198647 0 0 0 -3.97157,-2.0259 z" style="fill:#ffffff;fill-opacity:1;stroke:#aaccff;stroke-width:0.60411364;stroke-linecap:round;stroke-linejoin:round;stroke-opacity:1" data-index="32"></path>
      <path inkscape:connector-curvature="0" id="path4344" d="m 421.13024,563.80523 a 4.937255,4.937255 0 0 0 -4.54265,3.01349 4.937255,4.937255 0 0 0 -3.17277,-1.16221 4.937255,4.937255 0 0 0 -3.97748,2.02353 4.937255,4.937255 0 0 0 -3.73677,-1.7144 4.937255,4.937255 0 0 0 -4.93674,4.93792 4.937255,4.937255 0 0 0 0.22064,1.45837 4.937255,4.937255 0 0 0 -1.456,-0.22418 4.937255,4.937255 0 0 0 -4.93674,4.93673 4.937255,4.937255 0 0 0 4.18631,4.87539 4.937255,4.937255 0 0 0 -0.17463,1.29554 4.937255,4.937255 0 0 0 4.93674,4.93793 4.937255,4.937255 0 0 0 3.18103,-1.16103 4.937255,4.937255 0 0 0 4.22528,2.39522 4.937255,4.937255 0 0 0 3.98572,-2.03299 4.937255,4.937255 0 0 0 3.11142,1.10676 4.937255,4.937255 0 0 0 4.4931,-2.90495 4.937255,4.937255 0 0 0 2.60405,0.74571 4.937255,4.937255 0 0 0 4.63351,-3.24594 4.937255,4.937255 0 0 0 1.22947,0.15929 4.937255,4.937255 0 0 0 4.93792,-4.93674 4.937255,4.937255 0 0 0 -3.70845,-4.77745 4.937255,4.937255 0 0 0 0.004,-0.15928 4.937255,4.937255 0 0 0 -4.93674,-4.93793 4.937255,4.937255 0 0 0 -1.24126,0.16518 4.937255,4.937255 0 0 0 -4.92966,-4.79396 z" style="fill:#ffffff;fill-opacity:1;stroke:#aaccff;stroke-width:0.60411364;stroke-linecap:round;stroke-linejoin:round;stroke-opacity:1" data-index="33"></path>
      <path sodipodi:nodetypes="ccccccccccccccccccccccacc" inkscape:connector-curvature="0" id="path4346" d="m 423.96076,677.34838 c -5.07902,13.77503 -20.31848,23.17393 -37.5754,23.17466 -11.50918,-0.0147 -22.43271,-4.24084 -29.88946,-11.56318 -1.21667,21.02464 -18.79259,37.46488 -40.08035,37.49049 -19.07787,-0.0206 -35.51285,-13.30501 -39.33583,-31.79501 -0.33768,10.47685 -8.92248,18.79853 -19.40478,18.81016 -8.55557,-0.0147 -16.09994,-5.60922 -18.5824,-13.79681 -5.19167,15.35802 -21.16614,25.8833 -39.29451,25.89081 -22.66158,1.4e-4 -41.03251,-16.24343 -41.03254,-36.2811 0.016,-0.75131 0.0586,-1.50218 0.12747,-2.25114 -3.88047,7.72552 -11.78235,12.60596 -20.42777,12.6167 -10.8708,-0.0147 -20.23398,-7.66752 -22.4053,-18.31925 -3.13673,5.95029 -9.30847,9.67652 -16.03497,9.68108 -1.390312,0 -2.775177,-0.17428 -4.127326,-0.49783 7.956756,8.61256 18.803626,13.46591 30.125446,13.4793 0.22031,0 0.44056,-0.0147 0.66075,-0.025 17.56836,18.86448 47.66614,30.25353 79.96483,30.25883 22.27781,-0.0221 43.84104,-5.47395 60.94468,-15.40969 15.03213,10.39825 35.20107,16.22915 56.21206,16.25094 29.99312,-0.0177 57.49303,-11.82771 71.38571,-30.65642 15.5661,13.6923 36.91559,21.41488 59.21021,21.41767 29.32483,-0.0353 57.16704,-12.90448 71.26064,-35.09157 -14.74714,7.39403 -31.30674,22.4893 -49.00519,20.95046 -20.88597,-1.81616 -46.66113,-14.17438 -52.69592,-34.33422 z" style="fill: rgb(0, 85, 212); fill-opacity: 1; stroke-linecap: round; stroke-linejoin: round; stroke-opacity: 1; opacity: 1;" data-index="34"></path>
      <path inkscape:connector-curvature="0" id="path4342" d="m 83.080925,573.19917 a 5.2345466,5.1329374 0 0 0 -0.21085,0.006 5.2345466,5.1329374 0 0 0 -4.348441,2.70394 5.2345466,5.1329374 0 0 0 -3.428369,-1.03916 5.2345466,5.1329374 0 0 0 -4.970038,5.38108 5.2345466,5.1329374 0 0 0 0.254662,1.3372 5.2345466,5.1329374 0 0 0 -4.175928,5.27904 5.2345466,5.1329374 0 0 0 5.487581,4.87086 5.2345466,5.1329374 0 0 0 1.530719,-0.30878 5.2345466,5.1329374 0 0 0 -0.156086,1.52516 5.2345466,5.1329374 0 0 0 5.487581,4.87356 5.2345466,5.1329374 0 0 0 3.866498,-1.97358 5.2345466,5.1329374 0 0 0 4.318321,1.89571 5.2345466,5.1329374 0 0 0 3.299666,-1.37212 5.2345466,5.1329374 0 0 0 4.967302,2.89461 5.2345466,5.1329374 0 0 0 4.9673,-5.23337 5.2345466,5.1329374 0 0 0 1.322607,0.10731 5.2345466,5.1329374 0 0 0 4.9673,-5.38105 5.2345466,5.1329374 0 0 0 -0.0137,-0.1665 5.2345466,5.1329374 0 0 0 3.67482,-5.15281 5.2345466,5.1329374 0 0 0 -5.48758,-4.87088 5.2345466,5.1329374 0 0 0 -1.29249,0.22823 5.2345466,5.1329374 0 0 0 -5.079569,-3.12822 5.2345466,5.1329374 0 0 0 -2.716407,0.9076 5.2345466,5.1329374 0 0 0 -4.912535,-2.78452 5.2345466,5.1329374 0 0 0 -3.236686,1.31036 5.2345466,5.1329374 0 0 0 -4.115685,-1.90914 z" style="fill:#ffffff;fill-opacity:1;stroke:#aaccff;stroke-width:0.60411364;stroke-linecap:round;stroke-linejoin:round;stroke-opacity:1" data-index="35"></path>
      <g transform="matrix(0.17951598,0,0,0.17951598,75.831152,428.0884)" id="g4705">
        <path style="fill:#5599ff;fill-rule:evenodd;stroke:none;stroke-width:0.61757964px;stroke-linecap:round;stroke-linejoin:round;stroke-opacity:1" d="m 530.22583,1349.454 c -14.63484,-11.8866 20.11741,-27.0658 31.82691,-40.7088 -7.73623,-66.1744 89.62254,-152.4278 255.35534,-164.3156 17.19015,-30.4061 43.52028,-32.8965 70.31527,-32.5671 -7.14188,11.1414 -18.49991,21.498 -7.40157,42.1892 129.99172,58.6701 187.24842,168.0626 218.34732,245.7333 38.8439,8.2002 87.0505,12.2566 110.284,47.3702 -38.8529,-15.4073 -68.5509,14.9726 -101.402,-2.2204 -11.2327,13.9179 -50.7927,13.9861 -53.2916,37.7481 -6.6727,-10.3393 -29.684,-27.8988 13.3229,-71.7955 -28.8645,-8.9936 -81.72701,-84.4429 -127.80617,-97.1501 -58.80506,-16.2166 -97.62241,-30.0513 -186.76206,-17.5748 -4.27785,28.7115 4.36746,51.6794 17.76381,72.5357 -36.51884,3.9561 -54.72274,-28.7178 -74.01605,-59.2128 -51.56852,8.8293 -69.14354,15.2306 -94.74055,22.2048 -27.84765,10.1168 -69.09141,34.5865 -71.79555,17.7638 z" id="path4138" inkscape:connector-curvature="0" sodipodi:nodetypes="ccccccccccsccccc" data-index="36"></path>
        <ellipse style="fill:#ffffff;fill-opacity:1;stroke:none;stroke-width:0.61757964;stroke-linecap:round;stroke-linejoin:round;stroke-opacity:1" id="path4142-4" cx="637.91913" cy="1259.5245" rx="6.2913651" ry="5.5512042"></ellipse>
        <path sodipodi:nodetypes="caccccc" inkscape:connector-curvature="0" id="path4730" d="m 531.8547,1348.9143 c 25.81965,-1.9722 95.32597,-55.4868 148.16628,-68.4226 64.57481,-15.8086 136.90305,-21.2598 199.21964,-9.4813 135.54748,22.3047 153.20878,122.87 203.77118,137.9472 -45.3601,-1.3377 -79.0266,-78.6907 -146.26603,-99.1797 -119.80368,-45.5642 -236.11884,-11.4368 -341.21844,22.387 -27.84765,10.1168 -58.73167,30.2398 -63.67263,16.7494 z" style="fill:#d5e5ff;fill-opacity:1;fill-rule:evenodd;stroke:none;stroke-width:0.61757964px;stroke-linecap:round;stroke-linejoin:round;stroke-opacity:1" data-index="37"></path>
        <path style="fill:#5599ff;fill-opacity:1;fill-rule:evenodd;stroke:none;stroke-width:0.61757964px;stroke-linecap:butt;stroke-linejoin:miter;stroke-opacity:1" d="m 767.31949,1263.8825 c 31.18533,20.2194 67.70997,24.0881 123.36454,28.5792 -66.75346,-30.816 -67.20014,-36.925 -85.8587,-54.0317 -5.99847,9.2458 -19.5817,14.8816 -37.50584,25.4525 z" id="path4146" inkscape:connector-curvature="0" sodipodi:nodetypes="cccc" data-index="38"></path>
        <path style="fill:#d5e5ff;fill-rule:evenodd;stroke:#d5e5ff;stroke-width:1px;stroke-linecap:round;stroke-linejoin:round;stroke-opacity:1" d="m 1052.9245,1477.517 c 0,0 0.1493,-10.0983 2.9474,-13.9331 11.1528,-15.2851 34.7432,-16.8806 49.3016,-28.134 37.4301,14.235 62.0821,-9.9476 90.2969,0.5358 2.9695,1.1034 7.2345,6.1628 7.2345,6.1628 -22.8757,-12.3474 -68.0548,16.1259 -96.4597,-0.8039 -2.6746,10.9688 -44.2048,12.3786 -53.3207,36.1724 z" id="path4747" inkscape:connector-curvature="0" sodipodi:nodetypes="cacaccc" data-index="39"></path>
        <path style="fill:#d5e5ff;fill-rule:evenodd;stroke:none;stroke-width:1px;stroke-linecap:butt;stroke-linejoin:miter;stroke-opacity:1" d="m 877.80775,1153.3333 c -7.07237,-13.2532 -4.4844,-22.6542 0.587,-30.0762 3.12071,-4.5672 7.49231,-10.6319 7.49231,-10.6319 -8.90407,0.02 -35.59692,1.0283 -32.80092,33.6756 2.11205,-0.2672 16.7006,2.4246 24.72161,7.0325 z" id="path4749" inkscape:connector-curvature="0" sodipodi:nodetypes="csccc" data-index="40"></path>
        <ellipse ry="4.7889318" rx="5.4274564" cy="1259.5835" cx="637.7193" id="ellipse4146" style="fill:#000080;fill-opacity:1;stroke:none;stroke-width:0.61757964;stroke-linecap:round;stroke-linejoin:round;stroke-opacity:1"></ellipse>
        <ellipse style="fill:#ffffff;fill-opacity:1;stroke:none;stroke-width:0.61757964;stroke-linecap:round;stroke-linejoin:round;stroke-opacity:1" id="ellipse4148" cx="638.70789" cy="1256.9115" rx="2.3013532" ry="2.0306058"></ellipse>
      </g>
      <path inkscape:connector-curvature="0" id="path4755" d="m 422.88172,525.36895 c -3.23184,-0.019 -6.42606,1.87772 -8.68156,5.16493 2.82619,-3.66438 6.79504,-5.14323 10.35572,-3.99764 3.54176,1.13335 6.60681,4.83777 8.09232,9.57193 0.23225,0.0639 0.46537,0.14146 0.69885,0.22922 0.004,0.0118 0.007,0.023 0.0118,0.0341 0.0133,-0.006 0.0277,-0.009 0.0415,-0.0149 0.0133,0.006 0.0278,0.009 0.0418,0.0149 0.004,-0.0118 0.007,-0.0228 0.0118,-0.0341 0.23348,-0.0877 0.46662,-0.16541 0.69885,-0.22922 1.48551,-4.73416 4.55055,-8.43858 8.09232,-9.57193 3.56068,-1.14559 7.52953,0.33326 10.35572,3.99764 -2.67318,-3.89596 -6.665,-5.83865 -10.47519,-4.95409 -3.52621,0.82436 -6.79716,4.06806 -8.72467,8.66656 -1.92751,-4.59843 -5.19829,-7.8422 -8.72447,-8.66656 -0.59534,-0.13822 -1.19512,-0.20735 -1.79361,-0.21084 z" style="fill:#ffffff;fill-opacity:1;fill-rule:evenodd;stroke:none;stroke-width:1px;stroke-linecap:butt;stroke-linejoin:miter;stroke-opacity:1" data-index="41"></path>
      <path style="fill:#ffffff;fill-opacity:1;fill-rule:evenodd;stroke:none;stroke-width:1px;stroke-linecap:butt;stroke-linejoin:miter;stroke-opacity:1" d="m 448.6748,550.96659 c -2.51196,-1.23641 -5.71869,-0.96541 -8.71933,0.7443 3.58804,-1.78798 7.24064,-1.4405 9.58303,0.79839 2.3323,2.22217 3.32115,6.26823 2.68956,10.51988 0.15691,0.13748 0.30928,0.2862 0.45809,0.44283 -10e-4,0.0103 -0.003,0.0206 -0.004,0.0308 0.0132,6e-4 0.0253,0.003 0.0381,0.004 0.009,0.0103 0.0181,0.018 0.0269,0.0274 0.007,-0.007 0.0147,-0.015 0.0216,-0.0224 0.21517,0.0199 0.42625,0.0474 0.63139,0.0855 2.9474,-3.12861 6.73675,-4.85751 9.92585,-4.40215 3.20847,0.45297 5.74305,3.10589 6.56086,7.03045 -0.61099,-4.04722 -2.98817,-7.07038 -6.29244,-7.82113 -3.06018,-0.69033 -6.83589,0.60164 -10.07654,3.45741 0.23576,-4.3129 -1.08758,-8.07767 -3.52452,-10.05311 -0.41181,-0.33277 -0.85319,-0.61337 -1.31838,-0.84232 z" id="path4774" inkscape:connector-curvature="0" data-index="42"></path>
      <path inkscape:connector-curvature="0" id="path4776" d="m 381.58147,549.25506 c 2.51196,-1.23641 5.7187,-0.96541 8.71933,0.7443 -3.58804,-1.78797 -7.24064,-1.44048 -9.58303,0.79839 -2.3323,2.22218 -3.32115,6.26823 -2.68956,10.51988 -0.15691,0.13748 -0.30928,0.2862 -0.45809,0.44283 0.001,0.0103 0.003,0.0206 0.004,0.0308 -0.0133,6e-4 -0.0253,0.003 -0.0381,0.004 -0.009,0.0103 -0.0181,0.0179 -0.0269,0.0274 -0.007,-0.007 -0.0147,-0.015 -0.0216,-0.0224 -0.21516,0.0199 -0.42625,0.0474 -0.63139,0.0855 -2.94739,-3.12861 -6.73675,-4.85751 -9.92585,-4.40215 -3.20847,0.45297 -5.74305,3.10591 -6.56086,7.03045 0.611,-4.04722 2.98818,-7.07038 6.29246,-7.82112 3.06016,-0.69032 6.83587,0.60163 10.07652,3.4574 -0.23576,-4.3129 1.08758,-8.07765 3.52453,-10.0531 0.4118,-0.33278 0.85318,-0.61338 1.31837,-0.84233 z" style="fill:#ffffff;fill-opacity:1;fill-rule:evenodd;stroke:none;stroke-width:1px;stroke-linecap:butt;stroke-linejoin:miter;stroke-opacity:1" data-index="43"></path>
      <g id="g4778" transform="matrix(0.07978253,0.02137767,-0.02137767,0.07978253,268.30108,532.92633)">
        <path sodipodi:nodetypes="ccccccccccsccccc" inkscape:connector-curvature="0" id="path4780" d="m 530.22583,1349.454 c -14.63484,-11.8866 20.11741,-27.0658 31.82691,-40.7088 -7.73623,-66.1744 89.62254,-152.4278 255.35534,-164.3156 17.19015,-30.4061 43.52028,-32.8965 70.31527,-32.5671 -7.14188,11.1414 -18.49991,21.498 -7.40157,42.1892 129.99172,58.6701 187.24842,168.0626 218.34732,245.7333 38.8439,8.2002 87.0505,12.2566 110.284,47.3702 -38.8529,-15.4073 -68.5509,14.9726 -101.402,-2.2204 -11.2327,13.9179 -50.7927,13.9861 -53.2916,37.7481 -6.6727,-10.3393 -29.684,-27.8988 13.3229,-71.7955 -28.8645,-8.9936 -81.72701,-84.4429 -127.80617,-97.1501 -58.80506,-16.2166 -97.62241,-30.0513 -186.76206,-17.5748 -4.27785,28.7115 4.36746,51.6794 17.76381,72.5357 -36.51884,3.9561 -54.72274,-28.7178 -74.01605,-59.2128 -51.56852,8.8293 -69.14354,15.2306 -94.74055,22.2048 -27.84765,10.1168 -69.09141,34.5865 -71.79555,17.7638 z" style="fill:#5599ff;fill-rule:evenodd;stroke:none;stroke-width:0.61757964px;stroke-linecap:round;stroke-linejoin:round;stroke-opacity:1" data-index="44"></path>
        <ellipse ry="5.5512042" rx="6.2913651" cy="1259.5245" cx="637.91913" id="ellipse4782" style="fill:#ffffff;fill-opacity:1;stroke:none;stroke-width:0.61757964;stroke-linecap:round;stroke-linejoin:round;stroke-opacity:1"></ellipse>
        <path style="fill:#d5e5ff;fill-opacity:1;fill-rule:evenodd;stroke:none;stroke-width:0.61757964px;stroke-linecap:round;stroke-linejoin:round;stroke-opacity:1" d="m 531.8547,1348.9143 c 25.81965,-1.9722 95.32597,-55.4868 148.16628,-68.4226 64.57481,-15.8086 136.90305,-21.2598 199.21964,-9.4813 135.54748,22.3047 153.20878,122.87 203.77118,137.9472 -45.3601,-1.3377 -79.0266,-78.6907 -146.26603,-99.1797 -119.80368,-45.5642 -236.11884,-11.4368 -341.21844,22.387 -27.84765,10.1168 -58.73167,30.2398 -63.67263,16.7494 z" id="path4784" inkscape:connector-curvature="0" sodipodi:nodetypes="caccccc" data-index="45"></path>
        <path sodipodi:nodetypes="cccc" inkscape:connector-curvature="0" id="path4786" d="m 767.31949,1263.8825 c 31.18533,20.2194 67.70997,24.0881 123.36454,28.5792 -66.75346,-30.816 -67.20014,-36.925 -85.8587,-54.0317 -5.99847,9.2458 -19.5817,14.8816 -37.50584,25.4525 z" style="fill:#5599ff;fill-opacity:1;fill-rule:evenodd;stroke:none;stroke-width:0.61757964px;stroke-linecap:butt;stroke-linejoin:miter;stroke-opacity:1" data-index="46"></path>
        <path sodipodi:nodetypes="cacaccc" inkscape:connector-curvature="0" id="path4788" d="m 1052.9245,1477.517 c 0,0 0.1493,-10.0983 2.9474,-13.9331 11.1528,-15.2851 34.7432,-16.8806 49.3016,-28.134 37.4301,14.235 62.0821,-9.9476 90.2969,0.5358 2.9695,1.1034 7.2345,6.1628 7.2345,6.1628 -22.8757,-12.3474 -68.0548,16.1259 -96.4597,-0.8039 -2.6746,10.9688 -44.2048,12.3786 -53.3207,36.1724 z" style="fill:#d5e5ff;fill-rule:evenodd;stroke:#d5e5ff;stroke-width:1px;stroke-linecap:round;stroke-linejoin:round;stroke-opacity:1" data-index="47"></path>
        <path sodipodi:nodetypes="csccc" inkscape:connector-curvature="0" id="path4790" d="m 877.80775,1153.3333 c -7.07237,-13.2532 -4.4844,-22.6542 0.587,-30.0762 3.12071,-4.5672 7.49231,-10.6319 7.49231,-10.6319 -8.90407,0.02 -35.59692,1.0283 -32.80092,33.6756 2.11205,-0.2672 16.7006,2.4246 24.72161,7.0325 z" style="fill:#d5e5ff;fill-rule:evenodd;stroke:none;stroke-width:1px;stroke-linecap:butt;stroke-linejoin:miter;stroke-opacity:1" data-index="48"></path>
        <ellipse style="fill:#000080;fill-opacity:1;stroke:none;stroke-width:0.61757964;stroke-linecap:round;stroke-linejoin:round;stroke-opacity:1" id="ellipse4792" cx="637.7193" cy="1259.5835" rx="5.4274564" ry="4.7889318"></ellipse>
        <ellipse ry="2.0306058" rx="2.3013532" cy="1256.9115" cx="638.70789" id="ellipse4794" style="fill:#ffffff;fill-opacity:1;stroke:none;stroke-width:0.61757964;stroke-linecap:round;stroke-linejoin:round;stroke-opacity:1"></ellipse>
      </g>
      <g transform="matrix(0.02572376,0,0,0.02572376,275.53872,666.57123)" id="g4806">
        <ellipse style="fill:none;fill-opacity:1;stroke:#ffffff;stroke-width:3;stroke-linecap:butt;stroke-linejoin:round;stroke-miterlimit:4;stroke-dasharray:none;stroke-opacity:1" id="path4802" cx="698.36285" cy="913.53961" rx="48.162956" ry="46.746399"></ellipse>
        <circle style="fill:#ffffff;fill-opacity:1;stroke:#ffffff;stroke-width:3;stroke-linecap:butt;stroke-linejoin:round;stroke-miterlimit:4;stroke-dasharray:none;stroke-opacity:1" id="path4804" cx="679.23932" cy="901.49884" r="9.2076244"></circle>
      </g>
      <g id="g4832" transform="matrix(0.02572376,0,0,0.02572376,239.59673,660.79483)">
        <ellipse ry="46.746399" rx="48.162956" cy="913.53961" cx="698.36285" id="ellipse4834" style="fill:none;fill-opacity:1;stroke:#ffffff;stroke-width:3;stroke-linecap:butt;stroke-linejoin:round;stroke-miterlimit:4;stroke-dasharray:none;stroke-opacity:1"></ellipse>
        <circle r="9.2076244" cy="901.49884" cx="679.23932" id="circle4836" style="fill:#ffffff;fill-opacity:1;stroke:#ffffff;stroke-width:3;stroke-linecap:butt;stroke-linejoin:round;stroke-miterlimit:4;stroke-dasharray:none;stroke-opacity:1"></circle>
      </g>
      <g transform="matrix(0.02572376,0,0,0.02572376,260.77684,648.38629)" id="g4838">
        <ellipse style="fill:none;fill-opacity:1;stroke:#ffffff;stroke-width:3;stroke-linecap:butt;stroke-linejoin:round;stroke-miterlimit:4;stroke-dasharray:none;stroke-opacity:1" id="ellipse4840" cx="698.36285" cy="913.53961" rx="48.162956" ry="46.746399"></ellipse>
        <circle style="fill:#ffffff;fill-opacity:1;stroke:#ffffff;stroke-width:3;stroke-linecap:butt;stroke-linejoin:round;stroke-miterlimit:4;stroke-dasharray:none;stroke-opacity:1" id="circle4842" cx="679.23932" cy="901.49884" r="9.2076244"></circle>
      </g>
      <g id="g4844" transform="matrix(0.02572376,0,0,0.02572376,251.36347,632.5547)">
        <ellipse ry="46.746399" rx="48.162956" cy="913.53961" cx="698.36285" id="ellipse4846" style="fill:none;fill-opacity:1;stroke:#ffffff;stroke-width:3;stroke-linecap:butt;stroke-linejoin:round;stroke-miterlimit:4;stroke-dasharray:none;stroke-opacity:1"></ellipse>
        <circle r="9.2076244" cy="901.49884" cx="679.23932" id="circle4848" style="fill:#ffffff;fill-opacity:1;stroke:#ffffff;stroke-width:3;stroke-linecap:butt;stroke-linejoin:round;stroke-miterlimit:4;stroke-dasharray:none;stroke-opacity:1"></circle>
      </g>
      <g transform="matrix(0.02572376,0,0,0.02572376,308.27163,628.91771)" id="g4850">
        <ellipse style="fill:none;fill-opacity:1;stroke:#ffffff;stroke-width:3;stroke-linecap:butt;stroke-linejoin:round;stroke-miterlimit:4;stroke-dasharray:none;stroke-opacity:1" id="ellipse4852" cx="698.36285" cy="913.53961" rx="48.162956" ry="46.746399"></ellipse>
        <circle style="fill:#ffffff;fill-opacity:1;stroke:#ffffff;stroke-width:3;stroke-linecap:butt;stroke-linejoin:round;stroke-miterlimit:4;stroke-dasharray:none;stroke-opacity:1" id="circle4854" cx="679.23932" cy="901.49884" r="9.2076244"></circle>
      </g>
      <g id="g4856" transform="matrix(0.01280022,0,0,0.01280022,293.54956,671.76355)">
        <ellipse ry="46.746399" rx="48.162956" cy="913.53961" cx="698.36285" id="ellipse4858" style="fill:none;fill-opacity:1;stroke:#ffffff;stroke-width:3;stroke-linecap:butt;stroke-linejoin:round;stroke-miterlimit:4;stroke-dasharray:none;stroke-opacity:1"></ellipse>
        <circle r="9.2076244" cy="901.49884" cx="679.23932" id="circle4860" style="fill:#ffffff;fill-opacity:1;stroke:#ffffff;stroke-width:3;stroke-linecap:butt;stroke-linejoin:round;stroke-miterlimit:4;stroke-dasharray:none;stroke-opacity:1"></circle>
      </g>
      <g transform="matrix(0.01280022,0,0,0.01280022,308.52539,657.00165)" id="g4862">
        <ellipse style="fill:none;fill-opacity:1;stroke:#ffffff;stroke-width:3;stroke-linecap:butt;stroke-linejoin:round;stroke-miterlimit:4;stroke-dasharray:none;stroke-opacity:1" id="ellipse4864" cx="698.36285" cy="913.53961" rx="48.162956" ry="46.746399"></ellipse>
        <circle style="fill:#ffffff;fill-opacity:1;stroke:#ffffff;stroke-width:3;stroke-linecap:butt;stroke-linejoin:round;stroke-miterlimit:4;stroke-dasharray:none;stroke-opacity:1" id="circle4866" cx="679.23932" cy="901.49884" r="9.2076244"></circle>
      </g>
      <g id="g4868" transform="matrix(0.01280022,0,0,0.01280022,326.92427,651.01133)">
        <ellipse ry="46.746399" rx="48.162956" cy="913.53961" cx="698.36285" id="ellipse4870" style="fill:none;fill-opacity:1;stroke:#ffffff;stroke-width:3;stroke-linecap:butt;stroke-linejoin:round;stroke-miterlimit:4;stroke-dasharray:none;stroke-opacity:1"></ellipse>
        <circle r="9.2076244" cy="901.49884" cx="679.23932" id="circle4872" style="fill:#ffffff;fill-opacity:1;stroke:#ffffff;stroke-width:3;stroke-linecap:butt;stroke-linejoin:round;stroke-miterlimit:4;stroke-dasharray:none;stroke-opacity:1"></circle>
      </g>
      <g transform="matrix(0.01280022,0,0,0.01280022,244.12933,662.77805)" id="g4874">
        <ellipse style="fill:none;fill-opacity:1;stroke:#ffffff;stroke-width:3;stroke-linecap:butt;stroke-linejoin:round;stroke-miterlimit:4;stroke-dasharray:none;stroke-opacity:1" id="ellipse4876" cx="698.36285" cy="913.53961" rx="48.162956" ry="46.746399"></ellipse>
        <circle style="fill:#ffffff;fill-opacity:1;stroke:#ffffff;stroke-width:3;stroke-linecap:butt;stroke-linejoin:round;stroke-miterlimit:4;stroke-dasharray:none;stroke-opacity:1" id="circle4878" cx="679.23932" cy="901.49884" r="9.2076244"></circle>
      </g>
      <g id="g4880" transform="matrix(0.01280022,0,0,0.01280022,265.09548,653.36468)">
        <ellipse ry="46.746399" rx="48.162956" cy="913.53961" cx="698.36285" id="ellipse4882" style="fill:none;fill-opacity:1;stroke:#ffffff;stroke-width:3;stroke-linecap:butt;stroke-linejoin:round;stroke-miterlimit:4;stroke-dasharray:none;stroke-opacity:1"></ellipse>
        <circle r="9.2076244" cy="901.49884" cx="679.23932" id="circle4884" style="fill:#ffffff;fill-opacity:1;stroke:#ffffff;stroke-width:3;stroke-linecap:butt;stroke-linejoin:round;stroke-miterlimit:4;stroke-dasharray:none;stroke-opacity:1"></circle>
      </g>
      <g transform="matrix(0.01280022,0,0,0.01280022,259.3191,682.88842)" id="g4886">
        <ellipse style="fill:none;fill-opacity:1;stroke:#ffffff;stroke-width:3;stroke-linecap:butt;stroke-linejoin:round;stroke-miterlimit:4;stroke-dasharray:none;stroke-opacity:1" id="ellipse4888" cx="698.36285" cy="913.53961" rx="48.162956" ry="46.746399"></ellipse>
        <circle style="fill:#ffffff;fill-opacity:1;stroke:#ffffff;stroke-width:3;stroke-linecap:butt;stroke-linejoin:round;stroke-miterlimit:4;stroke-dasharray:none;stroke-opacity:1" id="circle4890" cx="679.23932" cy="901.49884" r="9.2076244"></circle>
      </g>
      <g id="g4892" transform="matrix(0.01280022,0,0,0.01280022,270.23006,679.89333)">
        <ellipse ry="46.746399" rx="48.162956" cy="913.53961" cx="698.36285" id="ellipse4894" style="fill:none;fill-opacity:1;stroke:#ffffff;stroke-width:3;stroke-linecap:butt;stroke-linejoin:round;stroke-miterlimit:4;stroke-dasharray:none;stroke-opacity:1"></ellipse>
        <circle r="9.2076244" cy="901.49884" cx="679.23932" id="circle4896" style="fill:#ffffff;fill-opacity:1;stroke:#ffffff;stroke-width:3;stroke-linecap:butt;stroke-linejoin:round;stroke-miterlimit:4;stroke-dasharray:none;stroke-opacity:1"></circle>
      </g>
      <g transform="matrix(0.01280022,0,0,0.01280022,249.37086,668.12657)" id="g4898">
        <ellipse style="fill:none;fill-opacity:1;stroke:#ffffff;stroke-width:3;stroke-linecap:butt;stroke-linejoin:round;stroke-miterlimit:4;stroke-dasharray:none;stroke-opacity:1" id="ellipse4900" cx="698.36285" cy="913.53961" rx="48.162956" ry="46.746399"></ellipse>
        <circle style="fill:#ffffff;fill-opacity:1;stroke:#ffffff;stroke-width:3;stroke-linecap:butt;stroke-linejoin:round;stroke-miterlimit:4;stroke-dasharray:none;stroke-opacity:1" id="circle4902" cx="679.23932" cy="901.49884" r="9.2076244"></circle>
      </g>
      <g id="g4904" transform="matrix(0.00633844,0,0,0.00633844,300.30861,653.60749)">
        <ellipse ry="46.746399" rx="48.162956" cy="913.53961" cx="698.36285" id="ellipse4906" style="fill:none;fill-opacity:1;stroke:#ffffff;stroke-width:3;stroke-linecap:butt;stroke-linejoin:round;stroke-miterlimit:4;stroke-dasharray:none;stroke-opacity:1"></ellipse>
        <circle r="9.2076244" cy="901.49884" cx="679.23932" id="circle4908" style="fill:#ffffff;fill-opacity:1;stroke:#ffffff;stroke-width:3;stroke-linecap:butt;stroke-linejoin:round;stroke-miterlimit:4;stroke-dasharray:none;stroke-opacity:1"></circle>
      </g>
      <g transform="matrix(0.00633844,0,0,0.00633844,322.13053,668.36939)" id="g4910">
        <ellipse style="fill:none;fill-opacity:1;stroke:#ffffff;stroke-width:3;stroke-linecap:butt;stroke-linejoin:round;stroke-miterlimit:4;stroke-dasharray:none;stroke-opacity:1" id="ellipse4912" cx="698.36285" cy="913.53961" rx="48.162956" ry="46.746399"></ellipse>
        <circle style="fill:#ffffff;fill-opacity:1;stroke:#ffffff;stroke-width:3;stroke-linecap:butt;stroke-linejoin:round;stroke-miterlimit:4;stroke-dasharray:none;stroke-opacity:1" id="circle4914" cx="679.23932" cy="901.49884" r="9.2076244"></circle>
      </g>
      <g id="g4916" transform="matrix(0.00633844,0,0,0.00633844,318.17263,668.79727)">
        <ellipse ry="46.746399" rx="48.162956" cy="913.53961" cx="698.36285" id="ellipse4918" style="fill:none;fill-opacity:1;stroke:#ffffff;stroke-width:3;stroke-linecap:butt;stroke-linejoin:round;stroke-miterlimit:4;stroke-dasharray:none;stroke-opacity:1"></ellipse>
        <circle r="9.2076244" cy="901.49884" cx="679.23932" id="circle4920" style="fill:#ffffff;fill-opacity:1;stroke:#ffffff;stroke-width:3;stroke-linecap:butt;stroke-linejoin:round;stroke-miterlimit:4;stroke-dasharray:none;stroke-opacity:1"></circle>
      </g>
      <g transform="matrix(0.00633844,0,0,0.00633844,327.58601,669.54607)" id="g4922">
        <ellipse style="fill:none;fill-opacity:1;stroke:#ffffff;stroke-width:3;stroke-linecap:butt;stroke-linejoin:round;stroke-miterlimit:4;stroke-dasharray:none;stroke-opacity:1" id="ellipse4924" cx="698.36285" cy="913.53961" rx="48.162956" ry="46.746399"></ellipse>
        <circle style="fill:#ffffff;fill-opacity:1;stroke:#ffffff;stroke-width:3;stroke-linecap:butt;stroke-linejoin:round;stroke-miterlimit:4;stroke-dasharray:none;stroke-opacity:1" id="circle4926" cx="679.23932" cy="901.49884" r="9.2076244"></circle>
      </g>
      <g id="g4928" transform="matrix(0.00633844,0,0,0.00633844,268.21754,688.2658)">
        <ellipse ry="46.746399" rx="48.162956" cy="913.53961" cx="698.36285" id="ellipse4930" style="fill:none;fill-opacity:1;stroke:#ffffff;stroke-width:3;stroke-linecap:butt;stroke-linejoin:round;stroke-miterlimit:4;stroke-dasharray:none;stroke-opacity:1"></ellipse>
        <circle r="9.2076244" cy="901.49884" cx="679.23932" id="circle4932" style="fill:#ffffff;fill-opacity:1;stroke:#ffffff;stroke-width:3;stroke-linecap:butt;stroke-linejoin:round;stroke-miterlimit:4;stroke-dasharray:none;stroke-opacity:1"></circle>
      </g>
      <g transform="matrix(0.00633844,0,0,0.00633844,281.69578,684.41489)" id="g4934">
        <ellipse style="fill:none;fill-opacity:1;stroke:#ffffff;stroke-width:3;stroke-linecap:butt;stroke-linejoin:round;stroke-miterlimit:4;stroke-dasharray:none;stroke-opacity:1" id="ellipse4936" cx="698.36285" cy="913.53961" rx="48.162956" ry="46.746399"></ellipse>
        <circle style="fill:#ffffff;fill-opacity:1;stroke:#ffffff;stroke-width:3;stroke-linecap:butt;stroke-linejoin:round;stroke-miterlimit:4;stroke-dasharray:none;stroke-opacity:1" id="circle4938" cx="679.23932" cy="901.49884" r="9.2076244"></circle>
      </g>
    </g>
  </g>
</svg>